<?xml version="1.0" standalone="no"?>
<!DOCTYPE svg PUBLIC "-//W3C//DTD SVG 20010904//EN"
 "http://www.w3.org/TR/2001/REC-SVG-20010904/DTD/svg10.dtd">
<svg version="1.0" xmlns="http://www.w3.org/2000/svg"
 width="199.000000pt" height="220.000000pt" viewBox="0 0 199.000000 220.000000"
 preserveAspectRatio="xMidYMid meet">
<g transform="translate(0.000000,220.000000) scale(0.100000,-0.100000)"
fill="#3e3eff" stroke="none">
<path d="M1508 1863 c7 -3 16 -2 19 1 4 3 -2 6 -13 5 -11 0 -14 -3 -6 -6z"/>
<path d="M244 1838 c3 -11 0 -18 -7 -18 -20 0 -50 -42 -51 -71 -1 -15 -4 -25
-8 -22 -18 10 -6 -15 22 -49 24 -29 28 -38 17 -45 -39 -23 -47 -87 -17 -125
10 -14 16 -29 12 -33 -4 -5 -1 -5 6 -1 7 4 -1 -12 -19 -37 l-31 -44 27 -53
c23 -45 25 -55 13 -64 -27 -21 -47 -106 -24 -106 6 0 16 -11 22 -25 10 -20 8
-29 -12 -58 -14 -21 -22 -47 -21 -65 1 -17 3 -29 5 -27 2 1 15 -9 29 -22 13
-14 21 -28 16 -32 -5 -3 -19 -20 -31 -38 -19 -26 -20 -36 -11 -60 5 -15 19
-37 30 -49 19 -21 19 -21 -12 -53 -21 -23 -28 -36 -21 -43 7 -7 7 -19 1 -36
-5 -13 -7 -27 -4 -30 3 -3 5 1 5 9 1 10 5 9 15 -5 8 -10 12 -22 10 -27 -3 -4
0 -11 6 -15 8 -5 9 -3 4 6 -6 9 -4 11 5 5 10 -6 9 -12 -6 -24 -24 -19 -57 -82
-40 -75 6 2 12 -9 13 -28 2 -26 0 -30 -8 -18 -9 13 -10 13 -6 0 2 -8 11 -14
21 -12 9 2 16 -2 16 -7 0 -6 17 -15 38 -21 40 -12 92 -1 92 20 0 6 5 8 11 5 7
-5 4 -14 -8 -28 -18 -22 -18 -22 3 -4 15 12 20 25 16 40 -3 13 -1 18 4 14 5
-5 9 -14 9 -20 0 -7 6 -13 13 -13 24 -3 27 -4 17 -12 -6 -4 -22 -23 -35 -42
-13 -19 -29 -38 -35 -42 -6 -5 -3 -8 8 -8 14 0 16 -6 12 -27 -3 -16 -2 -22 1
-15 4 9 12 5 25 -12 11 -14 36 -30 56 -35 30 -9 41 -7 65 10 15 11 28 26 28
32 0 7 7 3 15 -7 8 -11 15 -17 15 -13 0 4 10 1 23 -8 27 -17 72 -15 104 5 19
12 27 12 58 -3 20 -9 47 -17 60 -17 33 0 75 20 75 37 0 7 5 13 12 13 6 0 9 -3
5 -6 -10 -11 22 -36 47 -38 13 0 22 -5 18 -10 -3 -5 5 -6 19 -2 13 5 32 8 41
9 9 1 16 4 15 7 -1 3 7 18 18 34 24 36 22 95 -5 117 -19 17 -19 17 1 44 17 21
21 36 17 77 -4 33 -11 54 -22 60 -15 8 -15 11 4 35 14 18 20 41 20 74 0 39 -4
51 -26 68 -24 19 -25 21 -8 28 27 10 34 23 34 71 0 29 -6 48 -20 62 -25 25
-25 25 0 50 11 11 20 27 20 36 0 9 5 12 13 8 10 -6 10 -4 0 7 -7 7 -13 21 -13
31 0 11 -10 32 -22 48 -20 28 -20 31 -5 43 28 21 36 58 28 118 -1 3 -12 11
-26 17 l-26 12 26 25 c33 33 35 100 5 133 l-21 22 21 22 c11 12 20 30 20 40 0
11 5 16 10 13 6 -3 10 1 10 10 0 9 -5 13 -10 10 -6 -3 -10 4 -10 17 -1 26 -24
61 -33 51 -4 -3 -7 -1 -7 5 0 18 -65 26 -91 11 -33 -18 -77 -18 -84 -1 -4 10
0 12 12 8 10 -4 14 -4 11 0 -4 4 -1 16 7 28 17 23 19 64 6 99 -19 50 -117 60
-156 17 -18 -20 -18 -20 -43 5 -14 14 -31 25 -38 25 -8 0 -14 6 -14 13 0 9 -2
9 -9 -1 -5 -9 -18 -11 -37 -7 -16 4 -24 3 -18 -2 7 -5 4 -14 -8 -25 -25 -25
-24 -25 -50 -2 -13 12 -30 21 -38 21 -8 0 -31 3 -50 6 -19 4 -29 4 -22 1 9 -4
3 -13 -20 -27 -18 -12 -36 -20 -40 -19 -3 1 -4 -16 -1 -38 4 -24 1 -46 -7 -54
-6 -9 -10 -19 -7 -23 3 -4 -15 -9 -39 -11 -79 -5 -119 63 -73 122 15 19 30 26
54 26 19 0 36 -4 40 -9 3 -6 15 -9 26 -8 19 1 19 2 3 14 -10 7 -22 13 -27 13
-4 0 -6 4 -3 8 3 5 -9 6 -26 4 -19 -3 -34 1 -40 9 -8 11 -9 10 -4 -3z m261
-53 c14 -13 25 -36 25 -50 0 -36 -42 -75 -80 -75 -41 0 -70 31 -70 75 0 70 76
100 125 50z m175 5 c31 -31 30 -85 -2 -112 -50 -44 -136 2 -124 65 12 62 84
89 126 47z m175 -5 c34 -33 33 -77 -1 -104 -56 -44 -124 -14 -124 54 0 70 76
100 125 50z m-100 -143 c-3 -3 -15 3 -27 14 -23 19 -23 19 -6 -2 16 -18 16
-23 3 -40 -8 -10 -15 -14 -16 -9 -1 6 -3 15 -4 20 -2 6 -3 16 -4 23 0 7 -6 10
-12 6 -8 -4 -7 -9 2 -15 10 -6 10 -9 2 -9 -23 0 -24 21 -1 40 23 18 23 18 45
-2 13 -12 21 -24 18 -26z m-367 21 c15 -15 15 -16 1 -11 -9 3 -22 2 -30 -4
-11 -8 -11 -9 3 -4 10 3 20 1 23 -4 4 -6 1 -10 -5 -10 -6 0 -8 -4 -5 -10 3 -5
1 -10 -4 -10 -6 0 -11 5 -11 11 0 5 -4 8 -9 5 -5 -3 -15 2 -22 11 -9 11 -10
14 -2 10 7 -5 18 1 25 13 15 24 15 24 36 3z m184 -1 c9 -9 5 -17 -15 -36 l-27
-25 -6 25 c-4 17 -11 23 -22 19 -12 -4 -13 -3 -2 10 10 12 16 13 27 3 23 -19
43 -19 35 0 -4 10 -7 12 -10 4 -4 -13 -22 -7 -22 8 0 11 28 6 42 -8z m-237
-55 c37 -53 3 -121 -60 -121 -64 0 -97 68 -60 121 26 36 95 36 120 0z m143 22
c40 -14 60 -59 43 -96 -10 -22 -9 -29 5 -42 15 -15 16 -15 11 2 -4 9 -2 17 3
17 6 0 10 -4 10 -10 0 -14 55 -40 84 -40 13 0 31 6 38 13 12 11 37 14 77 9 11
-2 11 -5 1 -17 -7 -8 -17 -12 -24 -8 -6 3 -8 3 -4 -2 4 -4 1 -17 -7 -29 -18
-25 -19 -36 -3 -73 6 -15 10 -32 9 -36 -1 -5 2 -6 6 -4 5 3 14 -1 20 -8 10
-11 9 -15 -7 -20 -11 -4 -18 -11 -15 -16 4 -5 1 -9 -5 -9 -8 0 -10 -16 -6 -52
3 -29 6 -62 7 -73 0 -11 3 -14 6 -7 3 6 9 10 13 7 5 -3 7 -12 4 -20 -4 -8 -11
-12 -17 -8 -5 3 -7 1 -3 -5 3 -6 2 -13 -4 -17 -5 -3 -10 -26 -10 -50 0 -33 6
-50 22 -65 12 -11 16 -20 9 -20 -7 0 -10 -4 -6 -9 3 -5 -1 -16 -9 -23 -24 -25
-28 -56 -10 -94 9 -20 23 -38 30 -41 10 -4 10 -8 1 -18 -7 -7 -15 -11 -20 -8
-4 2 -7 1 -6 -4 1 -4 -3 -21 -9 -36 -16 -38 -15 -50 7 -78 26 -35 30 -52 12
-66 -20 -15 -31 -16 -31 -2 0 5 4 8 9 4 5 -3 12 -1 15 4 4 5 2 12 -3 15 -5 4
-12 2 -16 -4 -3 -5 -11 -10 -16 -10 -6 0 -7 5 -3 12 4 7 3 8 -4 4 -6 -4 -20
-1 -30 5 -12 8 -29 9 -48 4 -16 -5 -32 -8 -36 -7 -5 1 -7 -4 -5 -11 1 -6 -6
-11 -15 -9 -13 2 -16 -2 -12 -15 4 -12 0 -10 -11 6 -14 18 -15 28 -7 40 5 9
16 15 22 13 8 -2 10 3 7 13 -4 8 -1 15 5 15 6 0 5 6 -3 17 -8 9 -9 14 -4 11 6
-4 9 6 9 23 -2 46 -3 49 -18 43 -8 -3 -17 -1 -21 5 -3 6 -1 11 5 11 6 0 9 4 6
9 -8 13 4 42 15 35 5 -3 6 3 2 12 -5 13 -3 15 8 9 11 -7 11 -5 -1 10 -12 15
-12 17 -1 10 11 -6 13 -4 8 9 -4 10 -7 23 -7 30 0 8 -12 25 -26 40 -15 14 -22
26 -17 26 5 0 19 17 30 38 19 33 20 41 8 74 -9 27 -9 39 -1 43 6 2 2 3 -9 0
-16 -4 -21 0 -22 15 -2 17 3 20 20 16 12 -3 16 -3 10 0 -17 8 -17 28 0 21 7
-3 13 3 13 13 0 10 -4 16 -8 14 -10 -6 -10 -6 1 34 7 23 7 30 -1 26 -8 -5 -9
-1 -5 10 4 9 3 15 -1 13 -4 -3 -16 4 -26 14 -11 11 -14 19 -8 19 7 0 11 5 9
11 -1 6 4 14 12 17 10 3 11 0 5 -9 -7 -12 -5 -12 9 0 18 15 23 26 7 16 -6 -4
-10 6 -10 22 0 21 3 24 10 13 7 -12 9 -10 7 7 0 12 -5 19 -9 17 -13 -8 -9 11
5 25 10 10 8 11 -8 5 -16 -5 -18 -4 -8 6 6 7 9 19 6 28 -5 11 -3 13 7 7 9 -5
11 -4 6 4 -4 6 -12 9 -17 5 -6 -3 -16 1 -22 11 -10 13 -18 14 -40 6 -47 -18
-97 14 -97 61 0 38 16 67 43 78 12 5 22 9 23 9 1 1 15 -4 32 -10z m205 -18
c43 -42 10 -125 -50 -123 -51 2 -72 6 -67 13 2 4 -1 19 -7 33 -24 52 30 114
86 99 11 -3 28 -13 38 -22z m350 -3 c32 -38 17 -101 -29 -118 -32 -13 -90 10
-99 39 -12 40 5 82 38 96 38 16 65 11 90 -17z m-173 2 c25 -25 26 -71 1 -101
-23 -29 -81 -31 -111 -4 -25 22 -27 81 -3 107 23 25 87 24 113 -2z m41 7 c-7
-7 -14 -8 -21 -1 -6 6 -2 10 12 11 16 2 18 -1 9 -10z m-505 -149 c-13 -9 -28
1 -21 13 3 5 -1 6 -10 3 -14 -6 -14 -8 2 -21 13 -10 15 -16 5 -19 -6 -3 -9
-11 -5 -17 4 -7 0 -7 -9 1 -10 8 -14 20 -11 29 4 10 2 14 -5 9 -6 -3 -14 -2
-17 4 -4 6 -1 9 7 8 7 -2 12 3 10 10 -1 8 2 11 7 8 5 -4 12 -2 16 3 3 6 13 3
23 -7 11 -10 14 -20 8 -24z m517 28 c24 -18 12 -50 -13 -36 -28 15 -37 12 -14
-4 16 -12 17 -17 6 -28 -11 -11 -12 -10 -7 3 4 10 -2 19 -15 25 -19 8 -19 11
-5 32 19 25 23 26 48 8z m-379 -55 c-3 -3 -15 6 -27 18 l-22 24 27 -19 c14
-10 24 -21 22 -23z m-210 -2 c54 -42 23 -129 -46 -129 -44 1 -68 21 -75 63 -4
29 -1 40 20 61 31 31 65 33 101 5z m181 -4 c30 -30 32 -64 4 -99 -26 -33 -79
-36 -109 -6 -30 30 -27 83 6 109 35 28 69 26 99 -4z m350 0 c14 -13 25 -36 25
-50 0 -61 -87 -98 -130 -55 -23 23 -27 78 -7 102 27 35 80 36 112 3z m182 -2
c7 -9 13 -32 13 -50 0 -68 -76 -98 -125 -48 -54 53 -11 133 65 121 19 -3 41
-13 47 -23z m-663 -114 c-2 -4 4 -10 15 -14 19 -6 19 -7 -2 -28 -22 -22 -22
-22 -39 -3 -20 22 -20 20 -12 39 3 9 14 15 24 14 10 -1 17 -4 14 -8z m521 0
c-3 -3 5 -9 18 -13 l22 -6 -22 -15 c-21 -15 -25 -15 -45 1 l-23 16 25 -5 c22
-5 23 -5 8 7 -10 7 -16 15 -13 18 8 8 35 5 30 -3z m140 -62 c22 -32 18 -74
-10 -102 -28 -29 -45 -31 -84 -10 -75 38 -41 147 44 137 21 -3 41 -13 50 -25z
m-704 2 c47 -47 -2 -141 -65 -125 -92 23 -85 146 9 146 22 0 43 -8 56 -21z
m173 5 c65 -64 -19 -171 -92 -117 -33 24 -41 74 -17 109 12 19 24 24 55 24 22
0 45 -7 54 -16z m356 -6 c54 -58 -20 -155 -90 -118 -25 13 -50 67 -42 89 19
54 93 71 132 29z m-470 -152 c-17 -18 -18 -18 -39 3 -19 19 -19 25 2 22 4 0 6
2 6 7 -3 20 3 21 25 5 24 -17 24 -19 6 -37z m518 -2 c-12 -13 -22 -23 -22 -21
-1 1 -10 13 -21 26 -18 22 -18 24 -2 18 11 -4 16 -3 12 3 -13 21 6 30 30 14
l24 -15 -21 -25z m-581 -16 c15 -14 23 -33 23 -54 0 -69 -87 -101 -129 -48
-28 35 -26 69 4 99 30 31 71 32 102 3z m180 -4 c20 -20 24 -31 19 -57 -9 -44
-33 -67 -73 -67 -43 0 -73 30 -73 73 0 71 76 102 127 51z m348 1 c14 -13 25
-36 25 -50 0 -36 -42 -75 -80 -75 -41 0 -70 31 -70 75 0 70 76 100 125 50z
m175 5 c12 -12 20 -33 20 -55 0 -46 -29 -75 -74 -75 -39 0 -76 37 -76 75 0 12
9 34 21 49 26 33 79 36 109 6z m-642 -154 c-10 -7 -15 -16 -11 -19 3 -4 2 -7
-4 -7 -5 0 -17 8 -26 18 -18 20 -7 50 14 37 9 -6 11 -3 5 11 -6 16 -4 16 16
-4 22 -22 22 -24 6 -36z m530 21 c6 -8 3 -18 -8 -28 -14 -13 -20 -14 -35 -3
-10 7 -15 19 -12 26 6 17 43 20 55 5z m-593 -42 c29 -28 32 -70 9 -103 -33
-48 -134 -14 -134 45 0 72 76 108 125 58z m164 10 c45 -23 52 -92 12 -122 -28
-21 -88 -16 -105 9 -32 45 -15 103 34 121 24 9 29 8 59 -8z m373 -18 c41 -52
6 -117 -63 -117 -73 0 -99 85 -40 131 32 25 78 19 103 -14z m163 8 c48 -48 23
-125 -41 -125 -48 0 -71 14 -79 50 -9 41 1 67 33 85 39 21 60 18 87 -10z
m-103 -148 c-2 -5 -11 -6 -19 -3 -11 4 -13 1 -8 -15 7 -20 6 -19 -20 3 -25 21
-25 23 -8 36 10 7 17 19 15 25 -2 7 7 1 20 -13 14 -14 22 -29 20 -33z m-542
22 c0 -5 8 -9 17 -9 14 0 13 -3 -5 -16 -12 -8 -20 -20 -17 -25 3 -5 -1 -6 -9
-3 -9 3 -16 10 -16 16 0 5 4 7 8 4 5 -3 9 1 9 9 0 8 -4 12 -8 9 -10 -6 -22 14
-14 26 7 11 35 2 35 -11z m-39 -33 c-6 -7 -6 -17 -1 -26 19 -30 11 -78 -16
-99 -35 -28 -69 -26 -99 4 -31 30 -32 64 -3 100 19 24 26 27 65 22 34 -4 43
-2 39 9 -3 8 0 11 10 7 10 -3 11 -9 5 -17z m168 -22 c28 -35 26 -69 -4 -99
-48 -49 -125 -17 -125 52 0 70 86 101 129 47z m350 0 c28 -35 26 -69 -4 -99
-49 -50 -125 -20 -125 50 0 72 86 104 129 49z m171 4 c21 -22 22 -40 8 -113
-1 -5 -21 -11 -45 -13 -35 -2 -48 2 -68 22 -34 34 -33 78 1 105 35 28 78 27
104 -1z m-627 -150 c-2 -5 -11 -8 -19 -8 -8 0 -12 -4 -9 -10 3 -5 1 -10 -5
-10 -7 0 -10 7 -7 15 4 8 2 17 -4 20 -5 4 -8 2 -7 -3 2 -6 -1 -10 -7 -10 -5 0
-9 4 -7 10 1 5 -2 7 -8 3 -15 -9 -12 2 7 24 16 20 17 19 43 -2 15 -12 25 -25
23 -29z m507 27 c12 -22 12 -28 -3 -42 -12 -12 -17 -13 -17 -5 0 8 -5 10 -12
6 -7 -4 -10 -4 -6 1 4 4 0 14 -10 22 -9 8 -12 12 -6 9 7 -3 14 3 17 14 7 27
21 25 37 -5z m-577 -57 c49 -57 -10 -144 -80 -117 -68 25 -73 107 -9 135 37
15 64 10 89 -18z m151 21 c58 -27 55 -117 -5 -138 -54 -19 -99 13 -99 69 0 36
17 61 50 73 23 8 27 8 54 -4z m190 -10 c48 -38 30 -121 -29 -130 -64 -10 -109
43 -86 100 21 50 72 64 115 30z m189 -11 c34 -40 17 -99 -33 -117 -55 -19
-100 12 -100 69 0 72 86 104 133 48z m170 0 c21 -25 22 -66 1 -96 -11 -16 -25
-22 -55 -22 -47 0 -79 27 -79 68 0 71 87 104 133 50z m-300 -120 c-2 -5 1 -8
6 -8 19 0 12 -18 -9 -25 -11 -4 -17 -11 -14 -17 4 -7 2 -8 -4 -4 -7 4 -12 14
-12 22 0 8 -4 13 -9 9 -5 -3 -13 0 -17 6 -4 8 -3 9 4 5 7 -4 12 -2 12 4 0 21
23 38 36 26 7 -6 10 -14 7 -18z m-169 -1 c-1 -10 4 -14 15 -10 12 3 11 1 -3
-11 -11 -9 -23 -21 -26 -26 -4 -6 -17 1 -30 15 -17 18 -19 24 -8 20 13 -5 16
-2 13 14 -3 17 1 20 18 17 12 -2 21 -10 21 -19z m357 -3 c14 -8 12 -13 -15
-34 -16 -14 -27 -19 -23 -12 5 7 3 12 -3 12 -6 0 -9 4 -5 9 3 5 1 12 -5 16 -6
4 -8 11 -4 16 4 6 11 6 20 -2 12 -10 13 -8 8 7 -3 11 -2 15 3 8 4 -6 15 -15
24 -20z m-416 -49 c14 -13 25 -36 25 -50 0 -36 -42 -75 -80 -75 -41 0 -70 31
-70 75 0 70 76 100 125 50z m175 5 c12 -12 20 -33 20 -55 0 -94 -128 -102
-146 -8 -13 65 78 111 126 63z m174 -1 c34 -27 35 -71 1 -104 -30 -31 -77 -33
-106 -4 -30 30 -23 99 11 116 36 18 64 16 94 -8z m176 1 c44 -44 9 -130 -54
-130 -39 0 -76 35 -76 72 0 64 86 102 130 58z"/>
<path d="M446 1699 c2 -4 13 -7 24 -6 23 2 17 10 -10 12 -10 1 -17 -2 -14 -6z"/>
<path d="M605 1750 c-3 -6 1 -7 9 -4 18 7 21 14 7 14 -6 0 -13 -4 -16 -10z"/>
<path d="M617 1699 c7 -7 15 -10 18 -7 3 3 -2 9 -12 12 -14 6 -15 5 -6 -5z"/>
<path d="M770 1730 c0 -5 5 -10 11 -10 5 0 7 5 4 10 -3 6 -8 10 -11 10 -2 0
-4 -4 -4 -10z"/>
<path d="M799 1703 c-13 -16 -12 -17 4 -4 9 7 17 15 17 17 0 8 -8 3 -21 -13z"/>
<path d="M435 1580 c27 -12 43 -12 25 0 -8 5 -22 9 -30 9 -10 0 -8 -3 5 -9z"/>
<path d="M476 1518 c3 -5 10 -6 15 -3 13 9 11 12 -6 12 -8 0 -12 -4 -9 -9z"/>
<path d="M530 786 c0 -2 7 -9 15 -16 13 -11 14 -10 9 4 -5 14 -24 23 -24 12z"/>
<path d="M523 595 c0 -8 4 -12 9 -9 5 3 6 10 3 15 -9 13 -12 11 -12 -6z"/>
<path d="M990 1536 c0 -2 7 -7 16 -10 8 -3 12 -2 9 4 -6 10 -25 14 -25 6z"/>
<path d="M795 1591 c-3 -5 -1 -12 5 -16 5 -3 10 1 10 9 0 18 -6 21 -15 7z"/>
<path d="M778 1533 c7 -3 16 -2 19 1 4 3 -2 6 -13 5 -11 0 -14 -3 -6 -6z"/>
<path d="M876 1492 c-3 -5 1 -9 9 -9 8 0 12 4 9 9 -3 4 -7 8 -9 8 -2 0 -6 -4
-9 -8z"/>
<path d="M798 1413 c6 -2 9 -10 6 -15 -4 -7 -2 -8 5 -4 13 9 5 26 -12 25 -9 0
-8 -2 1 -6z"/>
<path d="M835 1410 c3 -5 8 -10 11 -10 2 0 4 5 4 10 0 6 -5 10 -11 10 -5 0 -7
-4 -4 -10z"/>
<path d="M777 1393 c-4 -3 -7 -11 -7 -17 0 -6 5 -5 12 2 6 6 9 14 7 17 -3 3
-9 2 -12 -2z"/>
<path d="M940 1361 c0 -6 4 -13 10 -16 6 -3 7 1 4 9 -7 18 -14 21 -14 7z"/>
<path d="M790 829 c0 -5 5 -7 10 -4 6 3 10 8 10 11 0 2 -4 4 -10 4 -5 0 -10
-5 -10 -11z"/>
<path d="M476 663 c-6 -14 -5 -15 5 -6 7 7 10 15 7 18 -3 3 -9 -2 -12 -12z"/>
<path d="M411 666 c2 -2 15 -9 29 -15 24 -11 24 -11 6 3 -16 13 -49 24 -35 12z"/>
<path d="M784 658 c9 -5 23 -5 32 0 12 6 7 9 -16 9 -23 0 -28 -3 -16 -9z"/>
<path d="M815 640 c-3 -6 1 -7 9 -4 18 7 21 14 7 14 -6 0 -13 -4 -16 -10z"/>
<path d="M957 659 c7 -7 15 -10 18 -7 3 3 -2 9 -12 12 -14 6 -15 5 -6 -5z"/>
<path d="M268 543 c6 -2 18 -2 25 0 6 3 1 5 -13 5 -14 0 -19 -2 -12 -5z"/>
<path d="M577 533 c-3 -5 5 -8 18 -8 13 0 21 3 18 8 -2 4 -10 7 -18 7 -8 0
-16 -3 -18 -7z"/>
<path d="M636 532 c-3 -5 1 -9 9 -9 8 0 12 4 9 9 -3 4 -7 8 -9 8 -2 0 -6 -4
-9 -8z"/>
<path d="M601 503 c7 -12 15 -20 18 -17 3 2 -3 12 -13 22 -17 16 -18 16 -5 -5z"/>
<path d="M779 523 c-13 -16 -12 -17 4 -4 16 13 21 21 13 21 -2 0 -10 -8 -17
-17z"/>
<path d="M816 525 c4 -8 8 -15 10 -15 2 0 4 7 4 15 0 8 -4 15 -10 15 -5 0 -7
-7 -4 -15z"/>
<path d="M770 489 c0 -5 5 -7 10 -4 6 3 10 8 10 11 0 2 -4 4 -10 4 -5 0 -10
-5 -10 -11z"/>
<path d="M939 513 c-13 -16 -12 -17 4 -4 16 13 21 21 13 21 -2 0 -10 -8 -17
-17z"/>
<path d="M645 369 c-4 -6 -5 -12 -2 -15 2 -3 7 2 10 11 7 17 1 20 -8 4z"/>
<path d="M990 376 c0 -2 7 -7 16 -10 8 -3 12 -2 9 4 -6 10 -25 14 -25 6z"/>
<path d="M788 1843 c12 -2 30 -2 40 0 9 3 -1 5 -23 4 -22 0 -30 -2 -17 -4z"/>
<path d="M1295 1830 c3 -6 -1 -10 -10 -10 -8 0 -18 -6 -21 -14 -3 -8 -13 -12
-25 -9 -10 3 -19 0 -19 -6 0 -5 7 -8 16 -4 14 5 15 3 6 -14 -6 -11 -9 -23 -5
-26 3 -3 -2 -13 -11 -22 -9 -9 -16 -21 -16 -26 0 -9 3 -10 32 -13 7 0 13 -10
13 -21 0 -11 5 -19 12 -18 7 2 23 -1 36 -6 17 -7 33 -5 52 5 36 18 40 18 24
-3 -13 -16 -12 -17 3 -4 10 7 15 17 12 22 -3 5 2 9 11 9 10 0 14 5 9 13 -4 6
3 2 15 -10 l22 -23 -21 -22 c-14 -15 -20 -35 -20 -67 1 -44 20 -88 33 -74 4 3
7 0 7 -8 0 -8 -9 -22 -20 -32 -11 -9 -20 -24 -20 -32 0 -8 -4 -15 -9 -15 -17
0 2 -45 32 -77 l30 -32 -26 -12 c-15 -7 -27 -15 -28 -18 -4 -56 -3 -98 3 -88
5 8 8 7 8 -5 0 -9 7 -21 17 -26 15 -9 14 -13 -6 -45 -26 -42 -30 -100 -9 -124
22 -26 33 -47 21 -40 -11 7 -33 -33 -33 -58 0 -8 -4 -15 -9 -15 -4 0 2 -21 15
-46 22 -43 23 -74 3 -74 -5 0 -9 -15 -9 -32 0 -25 -3 -29 -10 -18 -8 12 -10
10 -10 -8 0 -13 4 -20 10 -17 6 3 10 -1 10 -10 0 -9 11 -27 25 -40 13 -14 20
-25 15 -25 -18 0 -38 -45 -43 -100 -4 -30 -3 -46 2 -36 6 17 8 17 14 3 16 -41
97 -56 135 -24 8 6 23 13 35 14 29 5 30 8 17 33 -19 36 -3 80 36 96 56 23 108
-9 106 -67 -1 -53 -43 -83 -96 -68 -36 10 -51 2 -34 -19 11 -13 10 -15 -4 -9
-10 3 -17 3 -16 -1 1 -4 -4 -18 -12 -32 -25 -45 -5 -109 41 -129 40 -17 99 -8
122 20 24 30 23 103 -3 129 -23 23 -26 34 -7 27 7 -3 14 3 15 12 1 9 4 33 8
53 3 21 3 46 -1 55 -5 10 -7 21 -7 26 1 4 -4 7 -12 7 -9 0 -12 7 -9 20 3 11
10 17 16 13 5 -3 7 -1 3 5 -3 6 -2 13 4 17 5 3 10 26 10 50 0 24 -5 47 -10 50
-6 4 -7 11 -4 17 4 7 2 8 -4 4 -8 -5 -12 0 -12 13 0 12 5 21 11 21 5 0 8 4 4
9 -3 5 -1 12 5 16 13 8 13 82 -1 90 -6 4 -8 14 -5 22 3 8 1 11 -4 8 -16 -10
-11 31 5 45 17 14 21 95 5 105 -6 4 -7 11 -4 17 4 6 2 8 -4 4 -13 -8 -26 10
-16 25 4 8 9 7 15 -2 6 -10 8 -9 8 6 1 11 4 37 7 57 3 21 4 44 1 50 -2 7 -5
17 -5 21 -1 4 -8 15 -17 23 -8 9 -12 20 -9 26 4 6 10 5 16 -3 8 -11 9 -10 4 3
-3 10 -1 20 4 23 13 8 13 92 0 100 -6 4 -8 11 -4 16 3 5 0 16 -6 24 -10 11
-10 15 -1 15 7 0 10 4 6 9 -3 5 -1 12 5 16 5 3 10 24 10 47 0 32 -6 46 -31 69
-35 33 -78 38 -104 13 -11 -12 -19 -13 -29 -5 -19 16 -27 2 -14 -23 11 -21 11
-21 -11 -2 -25 22 -27 39 -6 56 8 7 17 28 21 47 8 42 -10 79 -50 104 -31 19
-67 13 -113 -17 -15 -9 -28 -12 -32 -7 -14 22 -119 55 -106 33z m85 -40 c45
-45 11 -130 -52 -130 -36 0 -78 40 -78 75 0 61 87 98 130 55z m179 -6 c28 -35
26 -69 -4 -99 -49 -50 -125 -20 -125 50 0 72 86 104 129 49z m-24 -158 c61
-26 61 -106 -1 -132 -29 -12 -39 -12 -62 -2 -53 26 -54 109 -2 135 31 16 24
16 65 -1z m202 -22 c23 -25 23 -65 0 -92 -49 -60 -147 -13 -132 63 2 11 4 24
4 28 2 14 65 36 86 31 11 -3 30 -16 42 -30z m-128 -107 c8 -10 7 -17 -2 -26
-9 -10 -8 -11 8 -5 17 6 17 4 -3 -10 -13 -10 -19 -22 -15 -29 4 -7 0 -6 -10 2
-19 15 -23 26 -6 15 7 -4 9 2 7 17 -2 16 2 23 10 21 8 -1 11 2 7 8 -4 6 -13 5
-25 -2 -14 -9 -16 -14 -7 -20 7 -5 8 -8 1 -8 -21 0 -24 14 -7 32 19 21 27 22
42 5z m131 -27 c8 -5 12 -11 10 -14 -3 -2 -14 2 -24 10 -22 15 -10 19 14 4z
m-185 -35 c14 -13 25 -36 25 -50 0 -36 -42 -75 -80 -75 -67 0 -97 88 -44 129
35 28 69 26 99 -4z m153 19 c48 -13 62 -93 21 -126 -47 -39 -129 -3 -129 57 0
30 41 75 67 75 10 0 28 -3 41 -6z m-85 -148 c2 -6 -5 -18 -17 -27 -19 -15 -22
-14 -39 1 -16 16 -16 19 -3 33 17 16 52 12 59 -7z m-47 -72 c10 -38 -4 -72
-36 -89 -40 -21 -57 -19 -85 10 -46 45 -24 121 38 127 40 4 75 -17 83 -48z
m159 26 c27 -29 22 -80 -10 -107 -31 -27 -46 -28 -84 -8 -44 22 -54 66 -25
110 21 33 91 36 119 5z m-120 -124 c12 -12 11 -16 -6 -32 -19 -17 -20 -17 -39
4 -19 20 -19 22 -2 31 23 14 31 13 47 -3z m-56 -52 c28 -35 26 -69 -4 -99 -49
-50 -125 -20 -125 50 0 72 86 104 129 49z m169 6 c34 -28 35 -85 2 -111 -37
-28 -84 -25 -109 7 -28 35 -26 69 4 99 29 30 71 32 103 5z m-108 -143 c0 -5
-7 -15 -15 -23 -12 -13 -17 -12 -34 2 -19 17 -19 17 2 39 20 19 23 20 34 6 7
-9 13 -20 13 -24z m-80 -22 c69 -36 42 -135 -37 -135 -49 0 -73 24 -73 71 0
29 6 42 26 58 32 25 46 26 84 6z m186 -8 c54 -47 25 -127 -47 -127 -60 0 -91
46 -68 102 21 50 72 61 115 25z m-122 -118 c-2 -4 1 -9 8 -11 7 -3 9 -12 5
-22 -5 -11 -13 -16 -23 -12 -9 4 -13 2 -8 -5 3 -6 -5 -3 -20 6 l-26 17 22 17
c21 18 51 25 42 10z m-149 -19 c3 -5 1 -10 -4 -10 -6 0 -11 5 -11 10 0 6 2 10
4 10 3 0 8 -4 11 -10z m104 -46 c28 -35 26 -69 -4 -99 -30 -30 -64 -32 -99 -4
-33 26 -36 79 -6 109 30 30 83 27 109 -6z m169 7 c12 -10 23 -29 26 -42 11
-74 -76 -118 -129 -64 -30 30 -32 64 -4 99 25 32 75 35 107 7z m-132 -100 c-4
-5 6 -19 21 -31 26 -20 26 -20 3 -9 -23 11 -24 11 -11 -4 12 -16 9 -21 -11
-18 -5 0 -8 -4 -8 -10 0 -8 -5 -8 -15 1 -19 16 -19 25 1 55 15 23 33 37 20 16z
m-61 -65 c40 -17 53 -52 35 -95 -30 -73 -140 -52 -140 27 0 41 26 72 68 81 1
1 18 -5 37 -13z m178 -175 c14 -6 29 -23 36 -41 27 -79 -65 -135 -124 -75 -34
33 -33 77 1 104 29 23 50 26 87 12z"/>
<path d="M1518 1533 c7 -3 16 -2 19 1 4 3 -2 6 -13 5 -11 0 -14 -3 -6 -6z"/>
<path d="M1675 1580 c27 -12 43 -12 25 0 -8 5 -22 9 -30 9 -10 0 -8 -3 5 -9z"/>
<path d="M1666 1411 c-4 -5 -2 -12 3 -15 5 -4 12 -2 15 3 4 5 2 12 -3 15 -5 4
-12 2 -15 -3z"/>
<path d="M1506 861 c-3 -5 1 -11 9 -14 9 -4 12 -1 8 9 -6 16 -10 17 -17 5z"/>
<path d="M1625 869 c-4 -6 -5 -12 -2 -15 2 -3 7 2 10 11 7 17 1 20 -8 4z"/>
<path d="M1505 675 c11 -9 19 -22 17 -28 -2 -7 0 -8 4 -4 4 4 9 15 10 23 1 9
0 13 -3 10 -3 -3 -15 -1 -27 5 -21 10 -21 10 -1 -6z"/>
<path d="M1678 715 c5 -11 12 -27 15 -35 5 -13 6 -13 6 1 1 8 -6 24 -15 35
-15 19 -15 19 -6 -1z"/>
<path d="M1647 663 c-3 -5 6 -9 20 -10 19 -1 22 1 12 8 -17 11 -26 11 -32 2z"/>
<path d="M1575 600 c-3 -5 -1 -10 4 -10 6 0 11 5 11 10 0 6 -2 10 -4 10 -3 0
-8 -4 -11 -10z"/>
<path d="M1506 548 c3 -5 10 -6 15 -3 13 9 11 12 -6 12 -8 0 -12 -4 -9 -9z"/>
<path d="M1670 309 c0 -5 5 -7 10 -4 6 3 10 8 10 11 0 2 -4 4 -10 4 -5 0 -10
-5 -10 -11z"/>
<path d="M1220 1661 c0 -6 4 -13 10 -16 6 -3 7 1 4 9 -7 18 -14 21 -14 7z"/>
<path d="M1393 1565 c0 -22 2 -30 4 -17 2 12 2 30 0 40 -3 9 -5 -1 -4 -23z"/>
<path d="M1097 1331 c-4 -17 -3 -21 5 -13 5 5 8 16 6 23 -3 8 -7 3 -11 -10z"/>
<path d="M182 1306 c7 -8 15 -12 17 -11 5 6 -10 25 -20 25 -5 0 -4 -6 3 -14z"/>
<path d="M175 920 c-3 -5 -2 -10 4 -10 5 0 13 5 16 10 3 6 2 10 -4 10 -5 0
-13 -4 -16 -10z"/>
<path d="M181 797 c2 -1 13 -9 24 -17 19 -14 19 -14 6 3 -7 9 -18 17 -24 17
-6 0 -8 -1 -6 -3z"/>
<path d="M1082 660 c0 -19 2 -27 5 -17 2 9 2 25 0 35 -3 9 -5 1 -5 -18z"/>
<path d="M1392 530 c0 -14 2 -19 5 -12 2 6 2 18 0 25 -3 6 -5 1 -5 -13z"/>
<path d="M1645 531 c-3 -6 0 -9 7 -6 9 4 14 -2 15 -16 2 -18 0 -19 -15 -7 -15
12 -16 11 -3 -4 17 -22 32 -14 27 14 -3 24 -21 35 -31 19z"/>
<path d="M357 400 c-9 -11 -13 -20 -8 -20 11 0 35 29 29 35 -2 2 -12 -4 -21
-15z"/>
<path d="M634 226 c1 -8 5 -18 8 -22 4 -3 5 1 4 10 -1 8 -5 18 -8 22 -4 3 -5
-1 -4 -10z"/>
<path d="M766 221 c-3 -4 6 -6 19 -3 14 2 25 6 25 8 0 8 -39 4 -44 -5z"/>
<path d="M860 226 c0 -2 7 -7 16 -10 8 -3 12 -2 9 4 -6 10 -25 14 -25 6z"/>
<path d="M1661 226 c2 -2 20 -6 39 -10 25 -4 31 -3 20 4 -14 9 -69 15 -59 6z"/>
</g>
</svg>
